<svg data-v-fde0c5aa="" xmlns="http://www.w3.org/2000/svg" viewBox="0 0 300 300" class="iconLeftSlogan"><!----><defs data-v-fde0c5aa=""><!----></defs><rect data-v-fde0c5aa="" fill="#064929" x="0" y="0" width="300px" height="300px" class="logo-background-square"></rect><defs data-v-fde0c5aa=""><!----></defs><g data-v-fde0c5aa="" id="56762462-1cb9-43a6-bee1-3facbcfafde5" fill="#FFFFFF" transform="matrix(4.573979740072377,0,0,4.573979740072377,135.1303579488459,94.51177069980454)"><path d="M0.73 3.92C0.49 3.92 0.42 4.14 0.42 4.31C0.42 4.55 0.57 4.59 0.74 4.61C1.47 4.65 1.67 4.61 1.67 4.90C1.67 4.94 1.65 5.01 1.65 5.10L1.65 12.38C1.65 12.61 1.61 12.75 1.36 12.77C0.38 12.84 0.18 12.78 0.18 13.08C0.18 13.12 0.18 13.16 0.20 13.20C0.21 13.36 0.22 13.52 0.43 13.52C0.49 13.52 1.27 13.44 2.23 13.44C3.18 13.44 3.95 13.52 4.00 13.52C4.24 13.52 4.28 13.29 4.28 13.12C4.28 12.78 3.96 12.85 3.18 12.80C2.93 12.77 2.93 12.59 2.93 12.45L2.93 4.89C2.93 4.77 2.95 4.66 3.15 4.65C3.86 4.58 4.03 4.62 4.03 4.20C4.03 3.98 3.91 3.93 3.79 3.93C3.65 3.93 3.22 3.99 2.34 3.99C1.47 3.99 0.78 3.92 0.73 3.92ZM8.72 12.77C8.41 12.77 8.12 12.74 7.83 12.68C7.46 12.61 7.32 12.49 7.32 12.14L7.32 5.01C7.32 4.66 7.45 4.58 8.26 4.58C9.13 4.58 10.25 4.77 11.17 5.45C12.28 6.27 12.85 7.67 12.85 9.02C12.85 11.49 10.77 12.77 8.72 12.77ZM4.68 4.28C4.68 4.48 4.72 4.61 4.93 4.61C5.75 4.63 6.08 4.58 6.08 5.12L6.08 12.21C6.08 12.52 6.02 12.70 5.70 12.71C4.96 12.75 4.66 12.70 4.66 13.05C4.66 13.41 4.86 13.44 4.98 13.44L8.95 13.44C9.37 13.44 9.79 13.43 10.19 13.36C12.19 12.99 14.25 11.12 14.25 8.64C14.25 6.65 12.98 5.25 11.59 4.61C10.35 4.03 8.90 3.99 7.53 3.99L4.98 3.99C4.86 3.99 4.68 4.02 4.68 4.28ZM15.01 13.44L18.12 13.44C18.21 13.44 18.23 13.50 18.23 13.58L18.23 15.88C18.23 15.97 18.24 16.04 18.37 16.04L18.93 16.04C19.05 16.04 19.07 15.99 19.07 15.88L19.07 13.54C19.07 13.45 19.12 13.44 19.19 13.44L19.98 13.44C20.06 13.44 20.10 13.43 20.15 13.38C20.20 13.31 20.30 12.59 20.30 12.56C20.30 12.45 20.23 12.38 20.02 12.38C19.91 12.38 19.85 12.40 19.43 12.40L19.21 12.40C19.10 12.40 19.07 12.35 19.07 12.25L19.08 7.69C19.08 7.48 18.97 7.43 18.89 7.43C18.79 7.43 18.72 7.49 18.66 7.56C18.56 7.69 18.65 7.56 15.01 12.80C14.91 12.94 14.77 13.08 14.77 13.24C14.77 13.41 14.90 13.44 15.01 13.44ZM18.09 12.52L16.06 12.52C15.99 12.52 15.97 12.47 15.97 12.45C15.97 12.40 15.97 12.40 18.07 9.30C18.09 9.28 18.10 9.24 18.16 9.24C18.21 9.24 18.23 9.30 18.23 9.35L18.23 12.33C18.23 12.42 18.20 12.52 18.09 12.52ZM21.15 6.22C21.15 7.13 21.67 8.04 22.82 8.48C23.76 8.86 24.65 8.82 25.47 9.41C25.97 9.77 26.28 10.33 26.28 10.95C26.28 12.04 25.35 12.89 24.25 12.89C23.42 12.89 22.79 12.45 22.44 11.97C22.02 11.41 22.18 11.76 22.08 10.78C21.99 10.09 21.98 9.97 21.69 9.97C21.45 9.97 21.39 10.11 21.38 10.26C21.25 11.86 21.06 12.38 21.06 12.54C21.06 12.63 21.11 12.75 21.31 12.75C21.43 12.75 21.53 12.71 21.67 12.71C21.87 12.71 21.97 12.78 22.11 12.91C22.64 13.37 23.42 13.68 24.23 13.68C25.96 13.68 27.30 12.33 27.30 10.67C27.30 9.39 26.54 8.48 25.54 8.05C24.64 7.67 23.63 7.69 22.88 7.14C22.44 6.83 22.16 6.38 22.16 5.87C22.16 5.14 22.74 4.55 23.52 4.55C24.14 4.55 24.68 4.91 25.06 5.33C25.73 6.10 25.58 6.61 26.03 6.62L26.04 6.62C26.18 6.62 26.28 6.55 26.28 6.41C26.28 6.30 26.22 5.96 26.22 5.28C26.22 4.58 26.28 4.23 26.28 4.12C26.28 3.96 26.18 3.85 26.05 3.85C25.72 3.85 25.68 4.41 25.47 4.41C25.28 4.41 24.79 3.85 23.66 3.85C22.19 3.85 21.15 4.97 21.15 6.22Z"></path></g><defs data-v-fde0c5aa=""><!----></defs><g data-v-fde0c5aa="" id="05bbeebd-e171-4a76-85e4-622c3ef2cfc0" stroke="none" fill="#4BBA5B" transform="matrix(1.0960240680268292,0,0,1.0960240680268292,25.770319742219677,95.30127290903503)"><g clip-rule="evenodd"><path d="M12.983 10.59l17.018 88.223-5.872-59.049 29.021-1.892-.054-9.883L64.549 1 53.622 18.977z"></path><path d="M59.389 54.548l5.16-53.541-8.74 39.716-19.612 1.045 1.57 20.462-7.766 36.583 12.057-39.899z"></path><path d="M62.8 67.182l.549-10.453-15.979 3.755-.032 11.797-17.337 26.532 21.68-27.616zM65.711 62.394l14.841-4.731 1.509-12.532-15.899 2.095zM72.07 44.502l10.988-1.417 1.581-10.278-8.079-.373L64.549 1l8.43 30.967z"></path><path d="M87.413 31.294l1.256-9.506-9.544-2.694L64.549 1l14.483 22.437-.422 7z"></path></g></g><defs data-v-fde0c5aa=""><!----></defs><g data-v-fde0c5aa="" id="463df417-a7dc-4926-a43d-36d8de936c80" fill="#FFFFFF" transform="matrix(0.5996631794412649,0,0,0.5996631794412649,135.79176526989175,175.69563370105212)"><path d="M7.74 13.02L6.58 10.12L2.16 10.12L1.01 13.02L0.27 13.02L3.96 3.78L4.79 3.78L8.48 13.02L7.74 13.02ZM2.42 9.48L6.33 9.48L4.72 5.45L4.38 4.47L4.37 4.47L4.03 5.42L2.42 9.48ZM20.12 3.78L20.12 3.78Q22.33 3.78 23.53 4.95L23.53 4.95L23.53 4.95Q24.72 6.12 24.72 8.33L24.72 8.33L24.72 8.33Q24.72 10.60 23.53 11.81L23.53 11.81L23.53 11.81Q22.33 13.02 20.12 13.02L20.12 13.02L17.21 13.02L17.21 3.78L20.12 3.78ZM20.17 12.38L20.17 12.38Q22.02 12.38 23.01 11.33L23.01 11.33L23.01 11.33Q24.00 10.29 24.00 8.33L24.00 8.33L24.00 8.33Q24.00 6.45 23.01 5.44L23.01 5.44L23.01 5.44Q22.02 4.42 20.17 4.42L20.17 4.42L17.91 4.42L17.91 12.38L20.17 12.38ZM40.66 3.78L37.10 13.02L36.27 13.02L32.70 3.78L33.46 3.78L36.19 10.93L36.68 12.36L37.17 10.93L39.91 3.78L40.66 3.78ZM50.13 3.78L50.13 13.02L49.43 13.02L49.43 3.78L50.13 3.78ZM62.90 3.64L62.90 3.64Q65.51 3.64 66.39 5.68L66.39 5.68L65.79 6.17L65.79 6.17Q65.44 5.18 64.74 4.73L64.74 4.73L64.74 4.73Q64.05 4.28 62.92 4.28L62.92 4.28L62.92 4.28Q62.10 4.28 61.50 4.54L61.50 4.54L61.50 4.54Q60.90 4.79 60.59 5.22L60.59 5.22L60.59 5.22Q60.27 5.66 60.27 6.20L60.27 6.20L60.27 6.20Q60.27 6.73 60.54 7.08L60.54 7.08L60.54 7.08Q60.80 7.43 61.44 7.68L61.44 7.68L61.44 7.68Q62.08 7.92 63.20 8.12L63.20 8.12L63.20 8.12Q65.00 8.43 65.76 9.02L65.76 9.02L65.76 9.02Q66.51 9.60 66.51 10.64L66.51 10.64L66.51 10.64Q66.51 11.38 66.08 11.96L66.08 11.96L66.08 11.96Q65.65 12.53 64.86 12.84L64.86 12.84L64.86 12.84Q64.06 13.16 63.04 13.16L63.04 13.16L63.04 13.16Q61.59 13.16 60.59 12.58L60.59 12.58L60.59 12.58Q59.58 12.00 59.22 10.95L59.22 10.95L59.84 10.47L59.84 10.47Q60.12 11.47 60.96 11.99L60.96 11.99L60.96 11.99Q61.81 12.52 63.06 12.52L63.06 12.52L63.06 12.52Q64.26 12.52 65.02 12.03L65.02 12.03L65.02 12.03Q65.79 11.54 65.79 10.68L65.79 10.68L65.79 10.68Q65.79 9.94 65.16 9.51L65.16 9.51L65.16 9.51Q64.54 9.07 63.00 8.81L63.00 8.81L63.00 8.81Q61.70 8.58 60.94 8.26L60.94 8.26L60.94 8.26Q60.19 7.94 59.86 7.46L59.86 7.46L59.86 7.46Q59.53 6.99 59.53 6.27L59.53 6.27L59.53 6.27Q59.53 5.56 59.94 4.96L59.94 4.96L59.94 4.96Q60.35 4.35 61.12 4.00L61.12 4.00L61.12 4.00Q61.88 3.64 62.90 3.64L62.90 3.64ZM79.38 3.64L79.38 3.64Q80.68 3.64 81.64 4.22L81.64 4.22L81.64 4.22Q82.60 4.80 83.12 5.87L83.12 5.87L83.12 5.87Q83.64 6.94 83.64 8.40L83.64 8.40L83.64 8.40Q83.64 9.86 83.12 10.93L83.12 10.93L83.12 10.93Q82.60 12.00 81.64 12.58L81.64 12.58L81.64 12.58Q80.68 13.16 79.38 13.16L79.38 13.16L79.38 13.16Q78.08 13.16 77.12 12.58L77.12 12.58L77.12 12.58Q76.16 12.00 75.64 10.93L75.64 10.93L75.64 10.93Q75.12 9.86 75.12 8.40L75.12 8.40L75.12 8.40Q75.12 6.94 75.64 5.87L75.64 5.87L75.64 5.87Q76.16 4.80 77.12 4.22L77.12 4.22L77.12 4.22Q78.08 3.64 79.38 3.64L79.38 3.64ZM79.38 4.28L79.38 4.28Q78.30 4.28 77.51 4.78L77.51 4.78L77.51 4.78Q76.72 5.28 76.29 6.21L76.29 6.21L76.29 6.21Q75.87 7.14 75.87 8.40L75.87 8.40L75.87 8.40Q75.87 9.66 76.29 10.59L76.29 10.59L76.29 10.59Q76.72 11.52 77.51 12.02L77.51 12.02L77.51 12.02Q78.30 12.52 79.38 12.52L79.38 12.52L79.38 12.52Q80.46 12.52 81.26 12.02L81.26 12.02L81.26 12.02Q82.05 11.52 82.48 10.59L82.48 10.59L82.48 10.59Q82.91 9.66 82.91 8.40L82.91 8.40L82.91 8.40Q82.91 7.14 82.48 6.21L82.48 6.21L82.48 6.21Q82.05 5.28 81.26 4.78L81.26 4.78L81.26 4.78Q80.46 4.28 79.38 4.28L79.38 4.28ZM99.90 13.02L99.08 13.02L96.43 9.02L96.39 9.02L93.66 9.02L93.66 13.02L92.96 13.02L92.96 3.78L96.39 3.78L96.39 3.78Q97.78 3.78 98.60 4.48L98.60 4.48L98.60 4.48Q99.41 5.18 99.41 6.40L99.41 6.40L99.41 6.40Q99.41 7.41 98.83 8.07L98.83 8.07L98.83 8.07Q98.24 8.74 97.22 8.93L97.22 8.93L99.90 13.02ZM93.66 4.42L93.66 8.36L96.38 8.36L96.38 8.36Q97.50 8.36 98.09 7.85L98.09 7.85L98.09 7.85Q98.69 7.35 98.69 6.40L98.69 6.40L98.69 6.40Q98.69 5.45 98.09 4.93L98.09 4.93L98.09 4.93Q97.50 4.42 96.38 4.42L96.38 4.42L93.66 4.42ZM114.62 3.78L111.34 9.42L111.34 13.02L110.64 13.02L110.64 9.42L107.37 3.78L108.19 3.78L110.99 8.69L113.79 3.78L114.62 3.78ZM137.68 8.50L141.47 8.50L141.47 13.02L140.91 13.02L140.88 11.41L140.88 11.41Q140.50 12.25 139.70 12.71L139.70 12.71L139.70 12.71Q138.89 13.16 137.70 13.16L137.70 13.16L137.70 13.16Q136.44 13.16 135.50 12.58L135.50 12.58L135.50 12.58Q134.55 12.00 134.04 10.92L134.04 10.92L134.04 10.92Q133.53 9.84 133.53 8.40L133.53 8.40L133.53 8.40Q133.53 6.96 134.06 5.88L134.06 5.88L134.06 5.88Q134.58 4.80 135.53 4.22L135.53 4.22L135.53 4.22Q136.49 3.64 137.75 3.64L137.75 3.64L137.75 3.64Q139.16 3.64 140.06 4.20L140.06 4.20L140.06 4.20Q140.95 4.76 141.40 5.91L141.40 5.91L140.76 6.24L140.76 6.24Q140.43 5.28 139.67 4.78L139.67 4.78L139.67 4.78Q138.91 4.28 137.75 4.28L137.75 4.28L137.75 4.28Q136.71 4.28 135.93 4.78L135.93 4.78L135.93 4.78Q135.14 5.28 134.71 6.21L134.71 6.21L134.71 6.21Q134.27 7.14 134.27 8.40L134.27 8.40L134.27 8.40Q134.27 10.32 135.19 11.42L135.19 11.42L135.19 11.42Q136.11 12.52 137.73 12.52L137.73 12.52L137.73 12.52Q138.74 12.52 139.44 12.12L139.44 12.12L139.44 12.12Q140.14 11.72 140.48 11.07L140.48 11.07L140.48 11.07Q140.81 10.42 140.81 9.67L140.81 9.67L140.81 9.16L137.68 9.16L137.68 8.50ZM157.89 13.02L157.07 13.02L154.42 9.02L154.38 9.02L151.65 9.02L151.65 13.02L150.95 13.02L150.95 3.78L154.38 3.78L154.38 3.78Q155.76 3.78 156.58 4.48L156.58 4.48L156.58 4.48Q157.40 5.18 157.40 6.40L157.40 6.40L157.40 6.40Q157.40 7.41 156.81 8.07L156.81 8.07L156.81 8.07Q156.23 8.74 155.20 8.93L155.20 8.93L157.89 13.02ZM151.65 4.42L151.65 8.36L154.36 8.36L154.36 8.36Q155.48 8.36 156.08 7.85L156.08 7.85L156.08 7.85Q156.67 7.35 156.67 6.40L156.67 6.40L156.67 6.40Q156.67 5.45 156.08 4.93L156.08 4.93L156.08 4.93Q155.48 4.42 154.36 4.42L154.36 4.42L151.65 4.42ZM170.53 3.64L170.53 3.64Q171.84 3.64 172.80 4.22L172.80 4.22L172.80 4.22Q173.75 4.80 174.27 5.87L174.27 5.87L174.27 5.87Q174.79 6.94 174.79 8.40L174.79 8.40L174.79 8.40Q174.79 9.86 174.27 10.93L174.27 10.93L174.27 10.93Q173.75 12.00 172.80 12.58L172.80 12.58L172.80 12.58Q171.84 13.16 170.53 13.16L170.53 13.16L170.53 13.16Q169.23 13.16 168.27 12.58L168.27 12.58L168.27 12.58Q167.31 12.00 166.80 10.93L166.80 10.93L166.80 10.93Q166.28 9.86 166.28 8.40L166.28 8.40L166.28 8.40Q166.28 6.94 166.80 5.87L166.80 5.87L166.80 5.87Q167.31 4.80 168.27 4.22L168.27 4.22L168.27 4.22Q169.23 3.64 170.53 3.64L170.53 3.64ZM170.53 4.28L170.53 4.28Q169.46 4.28 168.67 4.78L168.67 4.78L168.67 4.78Q167.87 5.28 167.45 6.21L167.45 6.21L167.45 6.21Q167.02 7.14 167.02 8.40L167.02 8.40L167.02 8.40Q167.02 9.66 167.45 10.59L167.45 10.59L167.45 10.59Q167.87 11.52 168.67 12.02L168.67 12.02L168.67 12.02Q169.46 12.52 170.53 12.52L170.53 12.52L170.53 12.52Q171.61 12.52 172.41 12.02L172.41 12.02L172.41 12.02Q173.21 11.52 173.64 10.59L173.64 10.59L173.64 10.59Q174.06 9.66 174.06 8.40L174.06 8.40L174.06 8.40Q174.06 7.14 173.64 6.21L173.64 6.21L173.64 6.21Q173.21 5.28 172.41 4.78L172.41 4.78L172.41 4.78Q171.61 4.28 170.53 4.28L170.53 4.28ZM191.13 3.78L191.13 9.65L191.13 9.65Q191.13 11.35 190.20 12.26L190.20 12.26L190.20 12.26Q189.28 13.16 187.57 13.16L187.57 13.16L187.57 13.16Q185.86 13.16 184.93 12.26L184.93 12.26L184.93 12.26Q184.00 11.35 184.00 9.65L184.00 9.65L184.00 3.78L184.70 3.78L184.70 9.51L184.70 9.51Q184.70 10.99 185.43 11.75L185.43 11.75L185.43 11.75Q186.16 12.52 187.57 12.52L187.57 12.52L187.57 12.52Q188.97 12.52 189.70 11.75L189.70 11.75L189.70 11.75Q190.43 10.99 190.43 9.51L190.43 9.51L190.43 3.78L191.13 3.78ZM203.99 3.78L203.99 3.78Q205.44 3.78 206.28 4.50L206.28 4.50L206.28 4.50Q207.13 5.22 207.13 6.48L207.13 6.48L207.13 6.48Q207.13 7.74 206.28 8.47L206.28 8.47L206.28 8.47Q205.44 9.20 203.99 9.20L203.99 9.20L201.63 9.20L201.63 13.02L200.93 13.02L200.93 3.78L203.99 3.78ZM203.91 8.54L203.91 8.54Q205.11 8.54 205.75 8.01L205.75 8.01L205.75 8.01Q206.39 7.48 206.39 6.48L206.39 6.48L206.39 6.48Q206.39 5.50 205.75 4.96L205.75 4.96L205.75 4.96Q205.11 4.42 203.91 4.42L203.91 4.42L201.63 4.42L201.63 8.54L203.91 8.54Z"></path></g></svg>